<?xml version="1.0" standalone="no"?><!DOCTYPE svg PUBLIC "-//W3C//DTD SVG 1.1//EN" "http://www.w3.org/Graphics/SVG/1.1/DTD/svg11.dtd"><svg t="1634395948080" class="icon" viewBox="0 0 1024 1024" version="1.1" xmlns="http://www.w3.org/2000/svg" p-id="3000" width="210" height="210" xmlns:xlink="http://www.w3.org/1999/xlink"><defs><style type="text/css"></style></defs><path d="M951.899859 223.416436H72.102141C28.844056 298.152582 4.072008 384.924752 4.072008 477.486933c0 161.676316 75.550148 305.696597 193.262377 398.716778 28.274055 22.342044 63.346124 34.344067 99.380195 34.344067h430.57084c36.03607 0 71.108139-12.000023 99.382195-34.344067 117.71223-93.020182 193.262377-237.038463 193.262377-398.716778 0-92.562181-24.772048-179.33435-68.030133-254.070497zM969.019893 223.416436H54.982107C24.616048 223.416436 0 198.800388 0 168.434329s24.616048-54.982107 54.982107-54.982107h914.035786c30.366059 0 54.982107 24.616048 54.982107 54.982107 0.002 30.366059-24.614048 54.982107-54.980107 54.982107z" fill="#F1F1F1" p-id="3001"></path><path d="M140.286274 168.434329c0-30.366059 24.616048-54.984107 54.982107-54.984107H54.982107C24.616048 113.452222 0 138.06827 0 168.434329s24.616048 54.982107 54.982107 54.982107h140.286274c-30.366059 0-54.982107-24.616048-54.982107-54.982107z" opacity=".05" p-id="3002"></path><path d="M1009.541972 374.906732H14.460028a509.960996 509.960996 0 0 0-10.38802 102.582201c0 161.678316 75.550148 305.696597 193.262377 398.716778 28.274055 22.342044 63.346124 34.344067 99.382195 34.344067h430.57084c36.03607 0 71.108139-12.000023 99.382195-34.344067 117.71223-93.020182 193.262377-237.038463 193.262377-398.716778a510.090996 510.090996 0 0 0-10.39002-102.582201z" fill="#76C9D2" p-id="3003"></path><path d="M161.910316 477.486933c0-63.752125 11.756023-124.756244 33.206065-180.974354h791.607546a505.894988 505.894988 0 0 0-34.826068-73.096143H72.102141C28.844056 298.152582 4.072008 384.924752 4.072008 477.486933c0 161.678316 75.550148 305.696597 193.262377 398.716778 28.274055 22.342044 63.346124 34.344067 99.382195 34.344067h157.838308c-36.03607 0-71.108139-12.000023-99.382194-34.344067-117.71223-93.020182-193.262377-237.038463-193.262378-398.716778z" opacity=".1" p-id="3004"></path><path d="M256.496501 476.24893h-3.180006c-14.854029 0-24.888049 15.16603-19.076037 28.836056l18.446036 43.398085a111.560218 111.560218 0 0 0 102.6702 67.920133 111.560218 111.560218 0 0 0-102.6702 67.920133l-18.446036 43.400084c-5.810011 13.670027 4.222008 28.836056 19.076037 28.836057h3.180006c81.68016 0 151.200295-59.464116 163.86232-140.154274-12.662025-80.692158-82.184161-140.156274-163.86232-140.156274z" fill="#FFFFFF" p-id="3005"></path><path d="M395.584773 551.781078c-10.27802 19.810039-16.006031 41.652081-16.006032 64.622126s5.728011 44.812088 16.006032 64.622126a165.330323 165.330323 0 0 0 24.776048-64.622126v-0.002a165.418323 165.418323 0 0 0-24.776048-64.620126z" fill="#513130" opacity=".2" p-id="3006"></path><path d="M402.720787 616.399204a194.36038 162.540317 0 1 0 388.720759 0 194.36038 162.540317 0 1 0-388.720759 0Z" fill="#FFFFFF" p-id="3007"></path><path d="M491.932961 652.227274a69.074135 69.074135 0 0 1 0-72.334141 19.146037 19.146037 0 0 1 24.530048-7.266015l55.440108 26.354052c14.388028 6.840013 14.388028 27.318053 0 34.158067l-55.440108 26.354051a19.144037 19.144037 0 0 1-24.530048-7.266014zM597.079166 718.769404c-51.936101-8.004016-97.13219 3.760007-131.408256 17.370034 34.598068 26.572052 80.730158 42.804084 131.408256 42.804083 52.650103 0 100.378196-17.536034 135.378265-45.970089-38.922076 1.302003-91.240178-7.402014-135.378265-14.204028z" fill="#E77587" p-id="3008"></path><path d="M630.083231 747.55346c-112.096219 0-202.966396-75.994148-202.966397-169.738331 0-19.132037 3.842008-37.504073 10.820021-54.662107-22.162043 26.402052-35.214069 58.544114-35.214068 93.252182 0 89.768175 87.01617 162.538317 194.358379 162.538317 64.542126 0 121.704238-26.330051 157.052307-66.82613-34.310067 22.194043-77.318151 35.436069-124.050242 35.436069z" fill="#513130" opacity=".1" p-id="3009"></path><path d="M698.171364 607.297186a15.000029 15.000029 0 0 1-15.00003-15.000029v-21.528042c0-8.286016 6.716013-15.000029 15.00003-15.00003s15.000029 6.714013 15.000029 15.00003v21.528042c0 8.286016-6.714013 15.000029-15.000029 15.000029z" fill="#4A5058" p-id="3010"></path><path d="M293.554573 720.219407a15.004029 15.004029 0 0 1-12.520024-23.244046c16.610032-25.254049 39.636077-43.504085 63.178123-50.072098a15.000029 15.000029 0 0 1 8.062016 28.894057c-16.416032 4.582009-33.678066 18.660036-46.17609 37.662073a14.982029 14.982029 0 0 1-12.544025 6.760014zM348.25268 586.461145c-1.334003 0-2.690005-0.18-4.040008-0.556001-23.540046-6.568013-46.568091-24.818048-63.178123-50.072097a15.000029 15.000029 0 0 1 25.066049-16.484033c12.498024 19.002037 29.760058 33.080065 46.17609 37.662074a15.000029 15.000029 0 0 1-4.024008 29.450057z" opacity=".1" p-id="3011"></path></svg>